<mxfile host="app.diagrams.net" agent="Mozilla/5.0 (Windows NT 10.0; Win64; x64) AppleWebKit/537.36 (KHTML, like Gecko) Chrome/138.0.0.0 Safari/537.36" version="28.0.6">
  <diagram name="Page-1" id="Ek9-X_7ysM0I2mibOemU">
    <mxGraphModel grid="1" page="1" gridSize="10" guides="1" tooltips="1" connect="1" arrows="1" fold="1" pageScale="1" pageWidth="1700" pageHeight="1100" math="0" shadow="0">
      <root>
        <mxCell id="0" />
        <mxCell id="1" parent="0" />
        <mxCell id="hRe_kejiiffoReeZe8uF-36" value="" style="rounded=1;whiteSpace=wrap;html=1;fillColor=none;dashed=1;" vertex="1" parent="1">
          <mxGeometry x="810" y="370" width="650" height="430" as="geometry" />
        </mxCell>
        <mxCell id="hRe_kejiiffoReeZe8uF-30" value="" style="rounded=1;whiteSpace=wrap;html=1;fillColor=none;dashed=1;" vertex="1" parent="1">
          <mxGeometry x="100" y="370" width="650" height="430" as="geometry" />
        </mxCell>
        <mxCell id="hRe_kejiiffoReeZe8uF-1" value="&lt;b&gt;&lt;font style=&quot;font-size: 24px;&quot;&gt;Integration Model&lt;/font&gt;&lt;/b&gt;" style="text;html=1;align=center;verticalAlign=middle;whiteSpace=wrap;rounded=0;" vertex="1" parent="1">
          <mxGeometry x="440" y="200" width="290" height="30" as="geometry" />
        </mxCell>
        <mxCell id="hRe_kejiiffoReeZe8uF-2" value="(How to Relate the Tables)" style="text;html=1;align=center;verticalAlign=middle;whiteSpace=wrap;rounded=0;" vertex="1" parent="1">
          <mxGeometry x="630" y="200" width="270" height="30" as="geometry" />
        </mxCell>
        <mxCell id="hRe_kejiiffoReeZe8uF-8" value="crm_sales_details" style="swimlane;fontStyle=0;childLayout=stackLayout;horizontal=1;startSize=30;horizontalStack=0;resizeParent=1;resizeParentMax=0;resizeLast=0;collapsible=1;marginBottom=0;whiteSpace=wrap;html=1;rounded=1;fillColor=#A9C4EB;" vertex="1" parent="1">
          <mxGeometry x="140" y="540" width="200" height="90" as="geometry" />
        </mxCell>
        <mxCell id="hRe_kejiiffoReeZe8uF-9" value="prd_key" style="text;strokeColor=none;fillColor=none;align=left;verticalAlign=middle;spacingLeft=4;spacingRight=4;overflow=hidden;points=[[0,0.5],[1,0.5]];portConstraint=eastwest;rotatable=0;whiteSpace=wrap;html=1;" vertex="1" parent="hRe_kejiiffoReeZe8uF-8">
          <mxGeometry y="30" width="200" height="30" as="geometry" />
        </mxCell>
        <mxCell id="hRe_kejiiffoReeZe8uF-10" value="cst_id" style="text;strokeColor=none;fillColor=none;align=left;verticalAlign=middle;spacingLeft=4;spacingRight=4;overflow=hidden;points=[[0,0.5],[1,0.5]];portConstraint=eastwest;rotatable=0;whiteSpace=wrap;html=1;strokeWidth=1;" vertex="1" parent="hRe_kejiiffoReeZe8uF-8">
          <mxGeometry y="60" width="200" height="30" as="geometry" />
        </mxCell>
        <mxCell id="hRe_kejiiffoReeZe8uF-11" value="crm_prd_info" style="swimlane;fontStyle=0;childLayout=stackLayout;horizontal=1;startSize=30;horizontalStack=0;resizeParent=1;resizeParentMax=0;resizeLast=0;collapsible=1;marginBottom=0;whiteSpace=wrap;html=1;rounded=1;fillColor=#A9C4EB;" vertex="1" parent="1">
          <mxGeometry x="480" y="470" width="210" height="60" as="geometry" />
        </mxCell>
        <mxCell id="hRe_kejiiffoReeZe8uF-12" value="prd_key" style="text;strokeColor=none;fillColor=none;align=left;verticalAlign=middle;spacingLeft=4;spacingRight=4;overflow=hidden;points=[[0,0.5],[1,0.5]];portConstraint=eastwest;rotatable=0;whiteSpace=wrap;html=1;" vertex="1" parent="hRe_kejiiffoReeZe8uF-11">
          <mxGeometry y="30" width="210" height="30" as="geometry" />
        </mxCell>
        <mxCell id="hRe_kejiiffoReeZe8uF-14" value="crm_cust_info" style="swimlane;fontStyle=0;childLayout=stackLayout;horizontal=1;startSize=30;horizontalStack=0;resizeParent=1;resizeParentMax=0;resizeLast=0;collapsible=1;marginBottom=0;whiteSpace=wrap;html=1;rounded=1;fillColor=#A9C4EB;" vertex="1" parent="1">
          <mxGeometry x="480" y="590" width="210" height="90" as="geometry" />
        </mxCell>
        <mxCell id="hRe_kejiiffoReeZe8uF-15" value="cst_id" style="text;strokeColor=none;fillColor=none;align=left;verticalAlign=middle;spacingLeft=4;spacingRight=4;overflow=hidden;points=[[0,0.5],[1,0.5]];portConstraint=eastwest;rotatable=0;whiteSpace=wrap;html=1;" vertex="1" parent="hRe_kejiiffoReeZe8uF-14">
          <mxGeometry y="30" width="210" height="30" as="geometry" />
        </mxCell>
        <mxCell id="hRe_kejiiffoReeZe8uF-16" value="cst_key" style="text;strokeColor=none;fillColor=none;align=left;verticalAlign=middle;spacingLeft=4;spacingRight=4;overflow=hidden;points=[[0,0.5],[1,0.5]];portConstraint=eastwest;rotatable=0;whiteSpace=wrap;html=1;" vertex="1" parent="hRe_kejiiffoReeZe8uF-14">
          <mxGeometry y="60" width="210" height="30" as="geometry" />
        </mxCell>
        <mxCell id="hRe_kejiiffoReeZe8uF-19" style="edgeStyle=orthogonalEdgeStyle;rounded=0;orthogonalLoop=1;jettySize=auto;html=1;entryX=0;entryY=0.5;entryDx=0;entryDy=0;" edge="1" parent="1" source="hRe_kejiiffoReeZe8uF-9" target="hRe_kejiiffoReeZe8uF-12">
          <mxGeometry relative="1" as="geometry" />
        </mxCell>
        <mxCell id="hRe_kejiiffoReeZe8uF-20" style="edgeStyle=orthogonalEdgeStyle;rounded=0;orthogonalLoop=1;jettySize=auto;html=1;entryX=0;entryY=0.5;entryDx=0;entryDy=0;" edge="1" parent="1" source="hRe_kejiiffoReeZe8uF-10" target="hRe_kejiiffoReeZe8uF-15">
          <mxGeometry relative="1" as="geometry" />
        </mxCell>
        <mxCell id="hRe_kejiiffoReeZe8uF-39" style="edgeStyle=orthogonalEdgeStyle;rounded=0;orthogonalLoop=1;jettySize=auto;html=1;entryX=1;entryY=0.5;entryDx=0;entryDy=0;" edge="1" parent="1" source="hRe_kejiiffoReeZe8uF-21" target="hRe_kejiiffoReeZe8uF-12">
          <mxGeometry relative="1" as="geometry">
            <Array as="points">
              <mxPoint x="860" y="480" />
              <mxPoint x="860" y="515" />
            </Array>
          </mxGeometry>
        </mxCell>
        <mxCell id="hRe_kejiiffoReeZe8uF-21" value="erp_px_cat_g1v2" style="swimlane;fontStyle=0;childLayout=stackLayout;horizontal=1;startSize=30;horizontalStack=0;resizeParent=1;resizeParentMax=0;resizeLast=0;collapsible=1;marginBottom=0;whiteSpace=wrap;html=1;rounded=1;fillColor=#fff2cc;strokeColor=#d6b656;" vertex="1" parent="1">
          <mxGeometry x="1038" y="430" width="220" height="60" as="geometry" />
        </mxCell>
        <mxCell id="hRe_kejiiffoReeZe8uF-22" value="id" style="text;strokeColor=none;fillColor=none;align=left;verticalAlign=middle;spacingLeft=4;spacingRight=4;overflow=hidden;points=[[0,0.5],[1,0.5]];portConstraint=eastwest;rotatable=0;whiteSpace=wrap;html=1;" vertex="1" parent="hRe_kejiiffoReeZe8uF-21">
          <mxGeometry y="30" width="220" height="30" as="geometry" />
        </mxCell>
        <mxCell id="hRe_kejiiffoReeZe8uF-23" value="erp_cust_az12" style="swimlane;fontStyle=0;childLayout=stackLayout;horizontal=1;startSize=30;horizontalStack=0;resizeParent=1;resizeParentMax=0;resizeLast=0;collapsible=1;marginBottom=0;whiteSpace=wrap;html=1;rounded=1;fillColor=#fff2cc;strokeColor=#d6b656;" vertex="1" parent="1">
          <mxGeometry x="1038" y="555" width="220" height="60" as="geometry" />
        </mxCell>
        <mxCell id="hRe_kejiiffoReeZe8uF-24" value="cid" style="text;strokeColor=none;fillColor=none;align=left;verticalAlign=middle;spacingLeft=4;spacingRight=4;overflow=hidden;points=[[0,0.5],[1,0.5]];portConstraint=eastwest;rotatable=0;whiteSpace=wrap;html=1;" vertex="1" parent="hRe_kejiiffoReeZe8uF-23">
          <mxGeometry y="30" width="220" height="30" as="geometry" />
        </mxCell>
        <mxCell id="hRe_kejiiffoReeZe8uF-25" value="erp_loc_a101" style="swimlane;fontStyle=0;childLayout=stackLayout;horizontal=1;startSize=30;horizontalStack=0;resizeParent=1;resizeParentMax=0;resizeLast=0;collapsible=1;marginBottom=0;whiteSpace=wrap;html=1;rounded=1;fillColor=#fff2cc;strokeColor=#d6b656;" vertex="1" parent="1">
          <mxGeometry x="1039" y="668" width="220" height="60" as="geometry" />
        </mxCell>
        <mxCell id="hRe_kejiiffoReeZe8uF-26" value="cid" style="text;strokeColor=none;fillColor=none;align=left;verticalAlign=middle;spacingLeft=4;spacingRight=4;overflow=hidden;points=[[0,0.5],[1,0.5]];portConstraint=eastwest;rotatable=0;whiteSpace=wrap;html=1;" vertex="1" parent="hRe_kejiiffoReeZe8uF-25">
          <mxGeometry y="30" width="220" height="30" as="geometry" />
        </mxCell>
        <mxCell id="hRe_kejiiffoReeZe8uF-27" value="Transactional Records about Sales &amp;amp; Orders" style="text;html=1;align=center;verticalAlign=middle;whiteSpace=wrap;rounded=0;" vertex="1" parent="1">
          <mxGeometry x="120" y="507" width="240" height="30" as="geometry" />
        </mxCell>
        <mxCell id="hRe_kejiiffoReeZe8uF-28" value="Current &amp;amp; History of Product Information" style="text;html=1;align=center;verticalAlign=middle;whiteSpace=wrap;rounded=0;" vertex="1" parent="1">
          <mxGeometry x="470" y="447" width="240" height="30" as="geometry" />
        </mxCell>
        <mxCell id="hRe_kejiiffoReeZe8uF-29" value="Customer Information" style="text;html=1;align=center;verticalAlign=middle;whiteSpace=wrap;rounded=0;" vertex="1" parent="1">
          <mxGeometry x="460" y="568" width="240" height="30" as="geometry" />
        </mxCell>
        <mxCell id="hRe_kejiiffoReeZe8uF-31" value="" style="rounded=1;whiteSpace=wrap;html=1;fillColor=#dae8fc;strokeColor=#6c8ebf;" vertex="1" parent="1">
          <mxGeometry x="360" y="350" width="120" height="40" as="geometry" />
        </mxCell>
        <mxCell id="hRe_kejiiffoReeZe8uF-32" value="&lt;b&gt;&lt;font style=&quot;font-size: 17px;&quot;&gt;CRM&lt;/font&gt;&lt;/b&gt;" style="text;html=1;align=center;verticalAlign=middle;whiteSpace=wrap;rounded=0;" vertex="1" parent="1">
          <mxGeometry x="390" y="356" width="60" height="30" as="geometry" />
        </mxCell>
        <mxCell id="hRe_kejiiffoReeZe8uF-33" value="Product Categories" style="text;html=1;align=center;verticalAlign=middle;whiteSpace=wrap;rounded=0;" vertex="1" parent="1">
          <mxGeometry x="1030" y="408" width="240" height="30" as="geometry" />
        </mxCell>
        <mxCell id="hRe_kejiiffoReeZe8uF-34" value="Extra Customer Information (Birthdate)" style="text;html=1;align=center;verticalAlign=middle;whiteSpace=wrap;rounded=0;" vertex="1" parent="1">
          <mxGeometry x="1030" y="530" width="240" height="30" as="geometry" />
        </mxCell>
        <mxCell id="hRe_kejiiffoReeZe8uF-35" value="Location of Customers (Country)" style="text;html=1;align=center;verticalAlign=middle;whiteSpace=wrap;rounded=0;" vertex="1" parent="1">
          <mxGeometry x="1030" y="645" width="240" height="30" as="geometry" />
        </mxCell>
        <mxCell id="hRe_kejiiffoReeZe8uF-37" value="&lt;b&gt;&lt;font style=&quot;font-size: 17px;&quot;&gt;CRM&lt;/font&gt;&lt;/b&gt;" style="text;html=1;align=center;verticalAlign=middle;whiteSpace=wrap;rounded=0;fillColor=#fff2cc;strokeColor=#d6b656;" vertex="1" parent="1">
          <mxGeometry x="1120" y="346" width="60" height="30" as="geometry" />
        </mxCell>
        <mxCell id="hRe_kejiiffoReeZe8uF-38" value="&lt;b&gt;&lt;font style=&quot;font-size: 17px;&quot;&gt;ERP&lt;/font&gt;&lt;/b&gt;" style="rounded=1;whiteSpace=wrap;html=1;fillColor=#fff2cc;strokeColor=#d6b656;" vertex="1" parent="1">
          <mxGeometry x="1090" y="345" width="120" height="40" as="geometry" />
        </mxCell>
        <mxCell id="hRe_kejiiffoReeZe8uF-40" style="edgeStyle=orthogonalEdgeStyle;rounded=0;orthogonalLoop=1;jettySize=auto;html=1;entryX=1;entryY=0.5;entryDx=0;entryDy=0;" edge="1" parent="1" source="hRe_kejiiffoReeZe8uF-24" target="hRe_kejiiffoReeZe8uF-15">
          <mxGeometry relative="1" as="geometry" />
        </mxCell>
        <mxCell id="hRe_kejiiffoReeZe8uF-41" style="edgeStyle=orthogonalEdgeStyle;rounded=0;orthogonalLoop=1;jettySize=auto;html=1;entryX=1;entryY=0.5;entryDx=0;entryDy=0;" edge="1" parent="1" source="hRe_kejiiffoReeZe8uF-26" target="hRe_kejiiffoReeZe8uF-16">
          <mxGeometry relative="1" as="geometry" />
        </mxCell>
        <mxCell id="ZFEOh6TdQVeCt-qawTuR-1" value="" style="rounded=0;whiteSpace=wrap;html=1;fillColor=#e1d5e7;strokeColor=#9673a6;" vertex="1" parent="1">
          <mxGeometry x="140" y="624" width="200" height="30" as="geometry" />
        </mxCell>
        <mxCell id="ZFEOh6TdQVeCt-qawTuR-2" value="&lt;b&gt;&lt;font style=&quot;font-size: 15px;&quot;&gt;SALES&lt;/font&gt;&lt;/b&gt;" style="text;html=1;align=center;verticalAlign=middle;whiteSpace=wrap;rounded=0;" vertex="1" parent="1">
          <mxGeometry x="185" y="624" width="100" height="30" as="geometry" />
        </mxCell>
        <mxCell id="ZFEOh6TdQVeCt-qawTuR-3" value="" style="rounded=0;whiteSpace=wrap;html=1;fillColor=#f8cecc;strokeColor=#b85450;" vertex="1" parent="1">
          <mxGeometry x="480" y="525" width="210" height="30" as="geometry" />
        </mxCell>
        <mxCell id="ZFEOh6TdQVeCt-qawTuR-4" value="&lt;b&gt;&lt;font style=&quot;font-size: 15px;&quot;&gt;PRODUCT&lt;/font&gt;&lt;/b&gt;" style="text;html=1;align=center;verticalAlign=middle;whiteSpace=wrap;rounded=0;" vertex="1" parent="1">
          <mxGeometry x="525" y="523" width="100" height="30" as="geometry" />
        </mxCell>
        <mxCell id="ZFEOh6TdQVeCt-qawTuR-5" value="" style="rounded=0;whiteSpace=wrap;html=1;fillColor=#d5e8d4;strokeColor=#82b366;" vertex="1" parent="1">
          <mxGeometry x="480" y="674" width="210" height="30" as="geometry" />
        </mxCell>
        <mxCell id="ZFEOh6TdQVeCt-qawTuR-6" value="&lt;b&gt;&lt;font style=&quot;font-size: 15px;&quot;&gt;CUSTOMER&lt;/font&gt;&lt;/b&gt;" style="text;html=1;align=center;verticalAlign=middle;whiteSpace=wrap;rounded=0;" vertex="1" parent="1">
          <mxGeometry x="525" y="674" width="100" height="30" as="geometry" />
        </mxCell>
        <mxCell id="ZFEOh6TdQVeCt-qawTuR-7" value="" style="rounded=0;whiteSpace=wrap;html=1;fillColor=#f8cecc;strokeColor=#b85450;" vertex="1" parent="1">
          <mxGeometry x="1038" y="483" width="222" height="30" as="geometry" />
        </mxCell>
        <mxCell id="ZFEOh6TdQVeCt-qawTuR-8" value="&lt;b&gt;&lt;font style=&quot;font-size: 15px;&quot;&gt;PRODUCT&lt;/font&gt;&lt;/b&gt;" style="text;html=1;align=center;verticalAlign=middle;whiteSpace=wrap;rounded=0;" vertex="1" parent="1">
          <mxGeometry x="1083" y="484" width="100" height="30" as="geometry" />
        </mxCell>
        <mxCell id="ZFEOh6TdQVeCt-qawTuR-9" value="" style="rounded=0;whiteSpace=wrap;html=1;fillColor=#d5e8d4;strokeColor=#82b366;" vertex="1" parent="1">
          <mxGeometry x="1039" y="608" width="222" height="30" as="geometry" />
        </mxCell>
        <mxCell id="ZFEOh6TdQVeCt-qawTuR-11" value="&lt;b&gt;&lt;font style=&quot;font-size: 15px;&quot;&gt;CUSTOMER&lt;/font&gt;&lt;/b&gt;" style="text;html=1;align=center;verticalAlign=middle;whiteSpace=wrap;rounded=0;" vertex="1" parent="1">
          <mxGeometry x="1090" y="608" width="100" height="30" as="geometry" />
        </mxCell>
        <mxCell id="ZFEOh6TdQVeCt-qawTuR-13" value="Text" style="text;html=1;align=center;verticalAlign=middle;whiteSpace=wrap;rounded=0;" vertex="1" parent="1">
          <mxGeometry x="950" y="480" width="60" height="30" as="geometry" />
        </mxCell>
        <mxCell id="ZFEOh6TdQVeCt-qawTuR-14" value="&lt;b&gt;&lt;font style=&quot;font-size: 15px;&quot;&gt;CUSTOMER&lt;/font&gt;&lt;/b&gt;" style="text;html=1;align=center;verticalAlign=middle;whiteSpace=wrap;rounded=0;" vertex="1" parent="1">
          <mxGeometry x="1090" y="720" width="100" height="30" as="geometry" />
        </mxCell>
        <mxCell id="ZFEOh6TdQVeCt-qawTuR-15" value="" style="rounded=0;whiteSpace=wrap;html=1;fillColor=#d5e8d4;strokeColor=#82b366;" vertex="1" parent="1">
          <mxGeometry x="1039" y="720" width="222" height="30" as="geometry" />
        </mxCell>
        <mxCell id="ZFEOh6TdQVeCt-qawTuR-16" value="&lt;b&gt;&lt;font style=&quot;font-size: 15px;&quot;&gt;CUSTOMER&lt;/font&gt;&lt;/b&gt;" style="text;html=1;align=center;verticalAlign=middle;whiteSpace=wrap;rounded=0;" vertex="1" parent="1">
          <mxGeometry x="1090" y="720" width="100" height="30" as="geometry" />
        </mxCell>
      </root>
    </mxGraphModel>
  </diagram>
</mxfile>
